<svg
  xmlns="http://www.w3.org/2000/svg"
  viewBox="0 0 64 64"
  role="img"
  aria-label="Nonlinear Numerics blue mark"
>
  <!-- White icon box -->
  <rect x="2" y="2" width="60" height="60" rx="12" fill="#ffffff"/>
  <!-- Curves extracted from logo-source.pdf and uniformly scaled for favicon use -->
  <path
      d="
        M 8.000 32.871
        L 8.049 32.844
        L 8.096 32.818
        L 8.144 32.790
        L 8.192 32.764
        L 8.240 32.736
        L 8.289 32.710
        L 8.336 32.683
        L 8.384 32.656
        L 8.432 32.630
        L 8.480 32.602
        L 8.528 32.576
        L 8.576 32.548
        L 8.624 32.522
        L 8.672 32.496
        L 8.720 32.468
        L 8.768 32.441
        L 8.817 32.414
        L 8.864 32.388
        L 8.912 32.360
        L 8.960 32.334
        L 9.008 32.307
        L 9.057 32.280
        L 9.104 32.253
        L 9.152 32.226
        L 9.200 32.200
        L 9.248 32.173
        L 9.296 32.146
        L 9.344 32.119
        L 9.392 32.092
        L 9.441 32.066
        L 9.488 32.039
        L 9.536 32.012
        L 9.584 31.985
        L 9.632 31.959
        L 9.680 31.931
        L 9.728 31.905
        L 9.776 31.878
        L 9.824 31.851
        L 9.872 31.824
        L 9.920 31.798
        L 9.969 31.771
        L 10.064 31.718
        L 10.112 31.690
        L 10.160 31.664
        L 10.209 31.637
        L 10.256 31.611
        L 10.304 31.583
        L 10.352 31.557
        L 10.400 31.530
        L 10.448 31.504
        L 10.496 31.477
        L 10.544 31.450
        L 10.592 31.424
        L 10.640 31.397
        L 10.688 31.371
        L 10.737 31.343
        L 10.784 31.317
        L 10.833 31.290
        L 10.880 31.264
        L 10.928 31.238
        L 10.977 31.211
        L 11.024 31.183
        L 11.072 31.157
        L 11.120 31.131
        L 11.168 31.104
        L 11.217 31.078
        L 11.264 31.051
        L 11.312 31.025
        L 11.361 30.998
        L 11.456 30.945
        L 11.504 30.919
        L 11.552 30.892
        L 11.601 30.866
        L 11.696 30.813
        L 11.744 30.786
        L 11.792 30.760
        L 11.840 30.733
        L 11.889 30.707
        L 11.936 30.680
        L 11.985 30.654
        L 12.032 30.628
        L 12.080 30.602
        L 12.129 30.576
        L 12.224 30.522
        L 12.272 30.496
        L 12.320 30.470
        L 12.369 30.444
        L 12.416 30.417
        L 12.464 30.391
        L 12.512 30.365
        L 12.560 30.339
        L 12.608 30.312
        L 12.656 30.287
        L 12.704 30.260
        L 12.753 30.234
        L 12.800 30.208
        L 12.848 30.182
        L 12.896 30.155
        L 12.944 30.130
        L 12.992 30.103
        L 13.040 30.078
        L 13.088 30.051
        L 13.136 30.026
        L 13.184 29.999
        L 13.232 29.973
        L 13.281 29.947
        L 13.328 29.921
        L 13.376 29.896
        L 13.424 29.869
        L 13.472 29.843
        L 13.521 29.817
        L 13.568 29.791
        L 13.616 29.766
        L 13.664 29.740
        L 13.712 29.714
        L 13.760 29.688
        L 13.809 29.663
        L 13.856 29.637
        L 13.905 29.610
        L 14.000 29.559
        L 14.049 29.534
        L 14.096 29.508
        L 14.144 29.482
        L 14.192 29.457
        L 14.240 29.431
        L 14.289 29.406
        L 14.336 29.380
        L 14.384 29.355
        L 14.432 29.329
        L 14.480 29.303
        L 14.528 29.278
        L 14.576 29.252
        L 14.624 29.227
        L 14.673 29.202
        L 14.720 29.176
        L 14.768 29.151
        L 14.816 29.126
        L 14.864 29.100
        L 14.912 29.075
        L 14.960 29.050
        L 15.008 29.025
        L 15.056 28.999
        L 15.104 28.974
        L 15.152 28.948
        L 15.201 28.924
        L 15.248 28.898
        L 15.296 28.873
        L 15.344 28.849
        L 15.392 28.823
        L 15.441 28.798
        L 15.488 28.773
        L 15.536 28.748
        L 15.584 28.723
        L 15.632 28.699
        L 15.680 28.673
        L 15.729 28.648
        L 15.776 28.623
        L 15.825 28.599
        L 15.920 28.549
        L 15.969 28.525
        L 16.064 28.475
        L 16.112 28.451
        L 16.160 28.426
        L 16.209 28.401
        L 16.256 28.377
        L 16.304 28.352
        L 16.352 28.328
        L 16.400 28.303
        L 16.448 28.279
        L 16.496 28.255
        L 16.544 28.230
        L 16.593 28.206
        L 16.640 28.181
        L 16.688 28.158
        L 16.736 28.133
        L 16.784 28.109
        L 16.832 28.085
        L 16.880 28.060
        L 16.928 28.037
        L 16.976 28.013
        L 17.024 27.988
        L 17.072 27.964
        L 17.121 27.940
        L 17.216 27.893
        L 17.264 27.869
        L 17.312 27.845
        L 17.361 27.821
        L 17.456 27.774
        L 17.504 27.750
        L 17.552 27.727
        L 17.600 27.703
        L 17.648 27.679
        L 17.696 27.656
        L 17.745 27.632
        L 17.792 27.608
        L 17.840 27.586
        L 17.888 27.562
        L 17.936 27.539
        L 17.984 27.516
        L 18.032 27.492
        L 18.080 27.469
        L 18.128 27.446
        L 18.176 27.423
        L 18.224 27.400
        L 18.272 27.376
        L 18.320 27.354
        L 18.368 27.330
        L 18.416 27.308
        L 18.464 27.285
        L 18.513 27.262
        L 18.560 27.239
        L 18.608 27.217
        L 18.656 27.195
        L 18.704 27.171
        L 18.752 27.149
        L 18.800 27.127
        L 18.848 27.104
        L 18.896 27.081
        L 18.944 27.059
        L 18.992 27.037
        L 19.041 27.015
        L 19.136 26.970
        L 19.184 26.948
        L 19.232 26.926
        L 19.281 26.904
        L 19.376 26.860
        L 19.424 26.838
        L 19.472 26.816
        L 19.520 26.795
        L 19.568 26.772
        L 19.616 26.750
        L 19.665 26.729
        L 19.712 26.707
        L 19.760 26.686
        L 19.808 26.665
        L 19.856 26.643
        L 19.904 26.621
        L 19.952 26.600
        L 20.000 26.579
        L 20.048 26.558
        L 20.096 26.537
        L 20.144 26.516
        L 20.192 26.495
        L 20.240 26.474
        L 20.288 26.453
        L 20.336 26.432
        L 20.384 26.411
        L 20.433 26.391
        L 20.480 26.370
        L 20.528 26.350
        L 20.576 26.329
        L 20.624 26.309
        L 20.672 26.289
        L 20.720 26.268
        L 20.768 26.248
        L 20.816 26.228
        L 20.864 26.208
        L 20.912 26.187
        L 20.961 26.168
        L 21.008 26.148
        L 21.056 26.128
        L 21.104 26.108
        L 21.152 26.088
        L 21.200 26.069
        L 21.248 26.049
        L 21.296 26.029
        L 21.344 26.010
        L 21.392 25.991
        L 21.440 25.972
        L 21.488 25.953
        L 21.536 25.933
        L 21.585 25.915
        L 21.632 25.895
        L 21.680 25.877
        L 21.728 25.858
        L 21.776 25.839
        L 21.824 25.820
        L 21.872 25.801
        L 21.920 25.783
        L 21.968 25.765
        L 22.016 25.747
        L 22.064 25.728
        L 22.112 25.710
        L 22.160 25.692
        L 22.208 25.674
        L 22.256 25.657
        L 22.304 25.639
        L 22.353 25.620
        L 22.400 25.604
        L 22.448 25.586
        L 22.496 25.568
        L 22.544 25.551
        L 22.592 25.534
        L 22.640 25.516
        L 22.688 25.500
        L 22.736 25.483
        L 22.784 25.466
        L 22.832 25.449
        L 22.880 25.433
        L 22.928 25.416
        L 22.976 25.399
        L 23.024 25.383
        L 23.072 25.367
        L 23.120 25.350
        L 23.216 25.319
        L 23.264 25.303
        L 23.312 25.287
        L 23.360 25.272
        L 23.408 25.256
        L 23.456 25.241
        L 23.505 25.225
        L 23.552 25.210
        L 23.600 25.195
        L 23.648 25.180
        L 23.696 25.165
        L 23.744 25.151
        L 23.792 25.136
        L 23.840 25.122
        L 23.888 25.108
        L 23.936 25.094
        L 23.984 25.079
        L 24.032 25.065
        L 24.080 25.051
        L 24.128 25.038
        L 24.176 25.024
        L 24.224 25.010
        L 24.273 24.997
        L 24.320 24.984
        L 24.368 24.971
        L 24.416 24.958
        L 24.464 24.945
        L 24.512 24.933
        L 24.560 24.920
        L 24.608 24.908
        L 24.656 24.896
        L 24.704 24.884
        L 24.752 24.872
        L 24.800 24.860
        L 24.896 24.838
        L 24.944 24.827
        L 24.992 24.816
        L 25.040 24.805
        L 25.136 24.784
        L 25.184 24.773
        L 25.232 24.763
        L 25.280 24.753
        L 25.328 24.743
        L 25.376 24.733
        L 25.425 24.724
        L 25.472 24.714
        L 25.520 24.705
        L 25.568 24.696
        L 25.616 24.687
        L 25.664 24.679
        L 25.712 24.671
        L 25.760 24.662
        L 25.808 24.654
        L 25.856 24.647
        L 25.904 24.639
        L 25.952 24.632
        L 26.000 24.625
        L 26.048 24.618
        L 26.096 24.611
        L 26.144 24.605
        L 26.192 24.598
        L 26.240 24.592
        L 26.288 24.586
        L 26.336 24.581
        L 26.384 24.575
        L 26.432 24.570
        L 26.480 24.566
        L 26.528 24.560
        L 26.576 24.556
        L 26.624 24.553
        L 26.672 24.548
        L 26.720 24.545
        L 26.768 24.542
        L 26.816 24.538
        L 26.864 24.536
        L 26.912 24.533
        L 26.960 24.531
        L 27.056 24.528
        L 27.104 24.527
        L 27.152 24.526
        L 27.200 24.525
        L 27.345 24.525
        L 27.392 24.526
        L 27.440 24.527
        L 27.488 24.528
        L 27.536 24.529
        L 27.584 24.532
        L 27.632 24.534
        L 27.680 24.537
        L 27.728 24.540
        L 27.776 24.544
        L 27.824 24.548
        L 27.872 24.553
        L 27.920 24.557
        L 27.968 24.562
        L 28.016 24.568
        L 28.064 24.575
        L 28.112 24.581
        L 28.160 24.588
        L 28.208 24.596
        L 28.256 24.604
        L 28.304 24.611
        L 28.352 24.620
        L 28.400 24.630
        L 28.448 24.640
        L 28.496 24.650
        L 28.544 24.662
        L 28.592 24.673
        L 28.640 24.686
        L 28.688 24.699
        L 28.736 24.712
        L 28.784 24.726
        L 28.832 24.741
        L 28.880 24.756
        L 28.928 24.772
        L 28.976 24.789
        L 29.024 24.807
        L 29.072 24.825
        L 29.120 24.844
        L 29.168 24.863
        L 29.216 24.884
        L 29.265 24.906
        L 29.312 24.928
        L 29.360 24.950
        L 29.408 24.974
        L 29.456 24.999
        L 29.503 25.026
        L 29.552 25.052
        L 29.600 25.080
        L 29.648 25.108
        L 29.696 25.139
        L 29.744 25.170
        L 29.792 25.202
        L 29.840 25.236
        L 29.888 25.271
        L 29.936 25.307
        L 29.984 25.344
        L 30.032 25.383
        L 30.080 25.424
        L 30.128 25.466
        L 30.176 25.509
        L 30.224 25.554
        L 30.272 25.601
        L 30.320 25.650
        L 30.368 25.701
        L 30.416 25.754
        L 30.464 25.809
        L 30.512 25.867
        L 30.560 25.926
        L 30.608 25.989
        L 30.656 26.053
        L 30.704 26.121
        L 30.752 26.192
        L 30.800 26.266
        L 30.848 26.344
        L 30.896 26.425
        L 30.944 26.509
        L 30.992 26.599
        L 31.040 26.692
        L 31.088 26.791
        L 31.136 26.896
        L 31.184 27.006
        L 31.232 27.123
        L 31.280 27.247
        L 31.328 27.379
        L 31.376 27.519
        L 31.423 27.670
        L 31.472 27.833
        L 31.520 28.008
        L 31.568 28.199
        L 31.616 28.407
        L 31.664 28.637
        L 31.712 28.892
        L 31.760 29.180
        L 31.808 29.506
        L 31.856 29.886
        L 31.904 30.335
        L 31.952 30.882
        L 32.000 31.557
        L 32.000 31.568
        L 32.048 32.381
        L 32.096 33.282
        L 32.144 34.101
        L 32.192 34.781
        L 32.240 35.327
        L 32.288 35.775
        L 32.336 36.154
        L 32.384 36.484
        L 32.432 36.769
        L 32.480 37.028
        L 32.480 37.025
        L 32.528 37.254
        L 32.577 37.463
        L 32.624 37.653
        L 32.672 37.829
        L 32.720 37.991
        L 32.768 38.142
        L 32.816 38.283
        L 32.864 38.415
        L 32.912 38.539
        L 32.960 38.655
        L 33.008 38.765
        L 33.056 38.870
        L 33.104 38.969
        L 33.152 39.063
        L 33.200 39.152
        L 33.248 39.237
        L 33.296 39.318
        L 33.344 39.396
        L 33.392 39.470
        L 33.440 39.541
        L 33.488 39.609
        L 33.536 39.673
        L 33.584 39.736
        L 33.632 39.795
        L 33.680 39.852
        L 33.728 39.907
        L 33.776 39.960
        L 33.824 40.011
        L 33.920 40.107
        L 33.968 40.152
        L 34.016 40.195
        L 34.064 40.238
        L 34.112 40.279
        L 34.160 40.317
        L 34.208 40.354
        L 34.256 40.391
        L 34.304 40.426
        L 34.352 40.460
        L 34.400 40.491
        L 34.448 40.522
        L 34.497 40.552
        L 34.544 40.581
        L 34.592 40.610
        L 34.640 40.636
        L 34.735 40.687
        L 34.784 40.711
        L 34.832 40.734
        L 34.880 40.756
        L 34.928 40.777
        L 34.976 40.797
        L 35.024 40.818
        L 35.120 40.855
        L 35.168 40.873
        L 35.216 40.890
        L 35.264 40.905
        L 35.312 40.920
        L 35.360 40.935
        L 35.408 40.950
        L 35.456 40.963
        L 35.504 40.976
        L 35.552 40.988
        L 35.600 41.000
        L 35.648 41.010
        L 35.696 41.021
        L 35.744 41.032
        L 35.792 41.040
        L 35.840 41.050
        L 35.888 41.058
        L 35.936 41.066
        L 35.984 41.074
        L 36.032 41.081
        L 36.080 41.087
        L 36.128 41.093
        L 36.176 41.100
        L 36.224 41.105
        L 36.272 41.109
        L 36.320 41.114
        L 36.368 41.118
        L 36.416 41.122
        L 36.464 41.124
        L 36.512 41.127
        L 36.560 41.130
        L 36.608 41.132
        L 36.655 41.133
        L 36.704 41.135
        L 36.752 41.136
        L 36.800 41.136
        L 36.944 41.136
        L 36.992 41.136
        L 37.040 41.135
        L 37.088 41.134
        L 37.136 41.132
        L 37.184 41.130
        L 37.232 41.128
        L 37.280 41.126
        L 37.328 41.122
        L 37.376 41.120
        L 37.424 41.116
        L 37.472 41.113
        L 37.520 41.109
        L 37.568 41.105
        L 37.616 41.100
        L 37.664 41.096
        L 37.712 41.092
        L 37.760 41.086
        L 37.808 41.081
        L 37.856 41.076
        L 37.904 41.070
        L 37.952 41.063
        L 38.000 41.057
        L 38.048 41.051
        L 38.096 41.044
        L 38.144 41.037
        L 38.192 41.030
        L 38.240 41.023
        L 38.288 41.015
        L 38.336 41.007
        L 38.432 40.991
        L 38.480 40.983
        L 38.528 40.974
        L 38.575 40.965
        L 38.624 40.956
        L 38.672 40.948
        L 38.720 40.938
        L 38.768 40.928
        L 38.816 40.918
        L 38.864 40.909
        L 38.912 40.899
        L 38.960 40.888
        L 39.008 40.878
        L 39.056 40.867
        L 39.104 40.857
        L 39.152 40.846
        L 39.200 40.835
        L 39.248 40.824
        L 39.296 40.813
        L 39.344 40.801
        L 39.392 40.789
        L 39.440 40.777
        L 39.488 40.765
        L 39.536 40.753
        L 39.584 40.741
        L 39.632 40.729
        L 39.680 40.715
        L 39.727 40.703
        L 39.776 40.690
        L 39.824 40.677
        L 39.872 40.664
        L 39.920 40.651
        L 39.968 40.637
        L 40.016 40.624
        L 40.064 40.611
        L 40.112 40.596
        L 40.160 40.582
        L 40.208 40.568
        L 40.256 40.554
        L 40.352 40.526
        L 40.400 40.511
        L 40.448 40.496
        L 40.495 40.482
        L 40.544 40.466
        L 40.592 40.452
        L 40.640 40.436
        L 40.688 40.421
        L 40.736 40.406
        L 40.784 40.390
        L 40.832 40.375
        L 40.880 40.359
        L 40.928 40.343
        L 40.976 40.327
        L 41.024 40.311
        L 41.072 40.294
        L 41.120 40.279
        L 41.168 40.262
        L 41.216 40.246
        L 41.264 40.229
        L 41.312 40.212
        L 41.360 40.195
        L 41.408 40.179
        L 41.456 40.162
        L 41.504 40.144
        L 41.552 40.127
        L 41.600 40.111
        L 41.647 40.093
        L 41.696 40.075
        L 41.744 40.058
        L 41.792 40.040
        L 41.840 40.023
        L 41.888 40.005
        L 41.936 39.987
        L 41.984 39.970
        L 42.032 39.951
        L 42.080 39.933
        L 42.128 39.915
        L 42.176 39.896
        L 42.272 39.859
        L 42.320 39.841
        L 42.368 39.822
        L 42.415 39.804
        L 42.464 39.785
        L 42.512 39.766
        L 42.560 39.747
        L 42.608 39.728
        L 42.656 39.709
        L 42.704 39.690
        L 42.752 39.670
        L 42.800 39.651
        L 42.848 39.632
        L 42.896 39.612
        L 42.944 39.593
        L 42.992 39.573
        L 43.039 39.554
        L 43.088 39.533
        L 43.136 39.514
        L 43.184 39.494
        L 43.232 39.474
        L 43.280 39.454
        L 43.328 39.434
        L 43.376 39.413
        L 43.424 39.393
        L 43.472 39.373
        L 43.520 39.353
        L 43.567 39.332
        L 43.616 39.312
        L 43.664 39.292
        L 43.712 39.271
        L 43.760 39.250
        L 43.808 39.229
        L 43.856 39.209
        L 43.904 39.187
        L 43.952 39.166
        L 44.000 39.145
        L 44.048 39.125
        L 44.096 39.104
        L 44.144 39.082
        L 44.192 39.061
        L 44.240 39.040
        L 44.288 39.018
        L 44.335 38.997
        L 44.384 38.976
        L 44.432 38.954
        L 44.480 38.932
        L 44.528 38.910
        L 44.576 38.889
        L 44.624 38.867
        L 44.672 38.846
        L 44.719 38.824
        L 44.768 38.802
        L 44.816 38.780
        L 44.864 38.757
        L 44.959 38.713
        L 45.008 38.691
        L 45.056 38.669
        L 45.104 38.647
        L 45.152 38.625
        L 45.200 38.602
        L 45.248 38.580
        L 45.296 38.557
        L 45.344 38.535
        L 45.392 38.512
        L 45.440 38.490
        L 45.487 38.467
        L 45.536 38.445
        L 45.584 38.422
        L 45.632 38.399
        L 45.680 38.376
        L 45.728 38.353
        L 45.776 38.330
        L 45.824 38.307
        L 45.872 38.284
        L 45.920 38.261
        L 45.968 38.239
        L 46.016 38.215
        L 46.064 38.193
        L 46.112 38.169
        L 46.160 38.146
        L 46.208 38.123
        L 46.255 38.099
        L 46.304 38.076
        L 46.352 38.052
        L 46.400 38.029
        L 46.448 38.005
        L 46.496 37.983
        L 46.544 37.959
        L 46.639 37.911
        L 46.688 37.888
        L 46.736 37.864
        L 46.784 37.840
        L 46.879 37.793
        L 46.928 37.769
        L 46.976 37.745
        L 47.024 37.721
        L 47.072 37.698
        L 47.120 37.673
        L 47.168 37.649
        L 47.216 37.625
        L 47.264 37.601
        L 47.312 37.576
        L 47.360 37.553
        L 47.407 37.528
        L 47.456 37.504
        L 47.504 37.479
        L 47.552 37.455
        L 47.600 37.431
        L 47.648 37.407
        L 47.696 37.382
        L 47.744 37.358
        L 47.791 37.334
        L 47.840 37.309
        L 47.888 37.284
        L 47.936 37.260
        L 47.984 37.236
        L 48.031 37.211
        L 48.080 37.186
        L 48.128 37.162
        L 48.175 37.137
        L 48.224 37.112
        L 48.271 37.088
        L 48.320 37.063
        L 48.368 37.038
        L 48.416 37.012
        L 48.464 36.988
        L 48.512 36.963
        L 48.559 36.938
        L 48.608 36.913
        L 48.656 36.888
        L 48.704 36.863
        L 48.752 36.839
        L 48.799 36.813
        L 48.848 36.788
        L 48.896 36.763
        L 48.944 36.738
        L 48.992 36.712
        L 49.040 36.688
        L 49.088 36.662
        L 49.136 36.637
        L 49.184 36.612
        L 49.232 36.587
        L 49.280 36.561
        L 49.327 36.536
        L 49.376 36.510
        L 49.424 36.485
        L 49.472 36.460
        L 49.520 36.434
        L 49.568 36.409
        L 49.616 36.384
        L 49.664 36.358
        L 49.711 36.333
        L 49.760 36.307
        L 49.808 36.281
        L 49.856 36.256
        L 49.951 36.205
        L 50.000 36.179
        L 50.095 36.128
        L 50.144 36.102
        L 50.191 36.076
        L 50.240 36.050
        L 50.288 36.024
        L 50.336 35.999
        L 50.384 35.973
        L 50.432 35.948
        L 50.479 35.921
        L 50.528 35.896
        L 50.576 35.870
        L 50.624 35.844
        L 50.672 35.818
        L 50.719 35.792
        L 50.768 35.766
        L 50.816 35.740
        L 50.864 35.714
        L 50.912 35.688
        L 50.960 35.663
        L 51.008 35.636
        L 51.056 35.611
        L 51.104 35.584
        L 51.152 35.559
        L 51.200 35.532
        L 51.247 35.505
        L 51.296 35.480
        L 51.344 35.453
        L 51.392 35.428
        L 51.440 35.401
        L 51.488 35.375
        L 51.536 35.349
        L 51.584 35.323
        L 51.631 35.296
        L 51.680 35.271
        L 51.728 35.244
        L 51.776 35.218
        L 51.871 35.165
        L 51.920 35.139
        L 52.015 35.086
        L 52.064 35.060
        L 52.111 35.033
        L 52.160 35.007
        L 52.208 34.981
        L 52.256 34.955
        L 52.304 34.928
        L 52.399 34.875
        L 52.448 34.849
        L 52.496 34.822
        L 52.544 34.796
        L 52.639 34.743
        L 52.688 34.717
        L 52.736 34.690
        L 52.783 34.663
        L 52.832 34.637
        L 52.880 34.610
        L 52.928 34.584
        L 52.976 34.558
        L 53.023 34.531
        L 53.072 34.504
        L 53.120 34.477
        L 53.167 34.451
        L 53.216 34.424
        L 53.263 34.398
        L 53.312 34.371
        L 53.360 34.345
        L 53.408 34.317
        L 53.456 34.291
        L 53.504 34.264
        L 53.552 34.238
        L 53.600 34.211
        L 53.648 34.184
        L 53.696 34.158
        L 53.791 34.104
        L 53.840 34.077
        L 53.888 34.051
        L 53.936 34.024
        L 53.984 33.998
        L 54.031 33.970
        L 54.080 33.944
        L 54.128 33.918
        L 54.176 33.890
        L 54.224 33.864
        L 54.272 33.837
        L 54.320 33.810
        L 54.368 33.783
        L 54.416 33.757
        L 54.464 33.729
        L 54.512 33.703
        L 54.559 33.677
        L 54.608 33.649
        L 54.656 33.623
        L 54.704 33.596
        L 54.752 33.569
        L 54.800 33.542
        L 54.848 33.516
        L 54.896 33.489
        L 54.943 33.462
        L 54.992 33.434
        L 55.040 33.408
        L 55.088 33.382
        L 55.136 33.354
        L 55.183 33.328
        L 55.232 33.300
        L 55.280 33.274
        L 55.328 33.248
        L 55.376 33.220
        L 55.424 33.194
        L 55.472 33.166
        L 55.520 33.140
        L 55.568 33.112
        L 55.616 33.086
        L 55.664 33.059
        L 55.711 33.032
        L 55.760 33.006
        L 55.808 32.978
        L 55.856 32.952
        L 55.904 32.924
        L 55.951 32.898
        L 56.000 32.871
      "
      fill="none"
      stroke="#3a4a59"
      stroke-width="5.4"
      stroke-linecap="round"
      stroke-linejoin="round"
  />
  <path
      d="
        M 8.000 31.210
        L 8.049 31.183
        L 8.096 31.156
        L 8.144 31.129
        L 8.192 31.102
        L 8.240 31.075
        L 8.289 31.049
        L 8.336 31.022
        L 8.384 30.995
        L 8.432 30.968
        L 8.480 30.941
        L 8.528 30.914
        L 8.576 30.887
        L 8.624 30.860
        L 8.672 30.834
        L 8.720 30.807
        L 8.768 30.780
        L 8.817 30.753
        L 8.864 30.726
        L 8.912 30.700
        L 8.960 30.672
        L 9.008 30.646
        L 9.057 30.619
        L 9.104 30.592
        L 9.152 30.566
        L 9.200 30.538
        L 9.248 30.512
        L 9.296 30.485
        L 9.344 30.458
        L 9.392 30.431
        L 9.441 30.404
        L 9.488 30.378
        L 9.536 30.350
        L 9.584 30.324
        L 9.632 30.297
        L 9.680 30.270
        L 9.728 30.243
        L 9.776 30.217
        L 9.824 30.190
        L 9.872 30.163
        L 9.920 30.137
        L 9.969 30.109
        L 10.064 30.056
        L 10.112 30.030
        L 10.160 30.002
        L 10.209 29.976
        L 10.256 29.950
        L 10.304 29.922
        L 10.352 29.896
        L 10.400 29.869
        L 10.448 29.843
        L 10.496 29.816
        L 10.544 29.789
        L 10.592 29.762
        L 10.640 29.736
        L 10.688 29.709
        L 10.737 29.683
        L 10.784 29.656
        L 10.833 29.629
        L 10.880 29.602
        L 10.928 29.576
        L 10.977 29.550
        L 11.024 29.523
        L 11.072 29.496
        L 11.120 29.469
        L 11.168 29.443
        L 11.217 29.416
        L 11.264 29.390
        L 11.312 29.363
        L 11.361 29.337
        L 11.456 29.284
        L 11.504 29.257
        L 11.552 29.231
        L 11.601 29.205
        L 11.696 29.151
        L 11.744 29.125
        L 11.792 29.099
        L 11.840 29.072
        L 11.889 29.046
        L 11.936 29.019
        L 11.985 28.992
        L 12.032 28.967
        L 12.080 28.940
        L 12.129 28.914
        L 12.224 28.861
        L 12.272 28.835
        L 12.320 28.809
        L 12.369 28.782
        L 12.416 28.756
        L 12.464 28.730
        L 12.512 28.704
        L 12.560 28.678
        L 12.608 28.651
        L 12.656 28.626
        L 12.704 28.599
        L 12.753 28.572
        L 12.800 28.547
        L 12.848 28.520
        L 12.896 28.495
        L 12.944 28.468
        L 12.992 28.442
        L 13.040 28.416
        L 13.088 28.390
        L 13.136 28.364
        L 13.184 28.338
        L 13.232 28.312
        L 13.281 28.286
        L 13.328 28.260
        L 13.376 28.234
        L 13.424 28.208
        L 13.472 28.182
        L 13.521 28.157
        L 13.568 28.130
        L 13.616 28.105
        L 13.664 28.079
        L 13.712 28.052
        L 13.760 28.027
        L 13.809 28.001
        L 13.856 27.976
        L 13.905 27.950
        L 13.952 27.924
        L 14.000 27.898
        L 14.049 27.872
        L 14.096 27.847
        L 14.144 27.821
        L 14.192 27.796
        L 14.240 27.770
        L 14.289 27.745
        L 14.336 27.719
        L 14.384 27.693
        L 14.432 27.668
        L 14.480 27.642
        L 14.528 27.616
        L 14.576 27.592
        L 14.624 27.566
        L 14.673 27.540
        L 14.720 27.515
        L 14.768 27.489
        L 14.816 27.465
        L 14.864 27.439
        L 14.912 27.414
        L 14.960 27.389
        L 15.008 27.363
        L 15.056 27.338
        L 15.104 27.313
        L 15.152 27.287
        L 15.201 27.262
        L 15.248 27.237
        L 15.296 27.212
        L 15.344 27.187
        L 15.392 27.162
        L 15.441 27.137
        L 15.488 27.112
        L 15.536 27.087
        L 15.584 27.062
        L 15.632 27.037
        L 15.680 27.012
        L 15.729 26.987
        L 15.776 26.962
        L 15.825 26.938
        L 15.920 26.888
        L 15.969 26.864
        L 16.064 26.814
        L 16.112 26.789
        L 16.160 26.765
        L 16.209 26.740
        L 16.256 26.716
        L 16.304 26.691
        L 16.352 26.667
        L 16.400 26.642
        L 16.448 26.618
        L 16.496 26.593
        L 16.544 26.569
        L 16.593 26.545
        L 16.640 26.520
        L 16.688 26.496
        L 16.736 26.472
        L 16.784 26.448
        L 16.832 26.424
        L 16.880 26.399
        L 16.928 26.375
        L 16.976 26.351
        L 17.024 26.328
        L 17.072 26.303
        L 17.121 26.279
        L 17.216 26.231
        L 17.264 26.208
        L 17.312 26.184
        L 17.361 26.160
        L 17.456 26.112
        L 17.504 26.089
        L 17.552 26.066
        L 17.600 26.041
        L 17.648 26.018
        L 17.696 25.995
        L 17.745 25.971
        L 17.792 25.948
        L 17.840 25.924
        L 17.888 25.901
        L 17.936 25.877
        L 17.984 25.855
        L 18.032 25.831
        L 18.080 25.808
        L 18.128 25.785
        L 18.176 25.762
        L 18.224 25.739
        L 18.272 25.716
        L 18.320 25.693
        L 18.368 25.670
        L 18.416 25.647
        L 18.464 25.624
        L 18.513 25.601
        L 18.560 25.578
        L 18.608 25.555
        L 18.656 25.533
        L 18.704 25.510
        L 18.752 25.487
        L 18.800 25.465
        L 18.848 25.442
        L 18.896 25.420
        L 18.944 25.398
        L 18.992 25.375
        L 19.041 25.353
        L 19.136 25.309
        L 19.184 25.287
        L 19.232 25.265
        L 19.281 25.243
        L 19.376 25.199
        L 19.424 25.177
        L 19.472 25.155
        L 19.520 25.133
        L 19.568 25.111
        L 19.616 25.089
        L 19.665 25.068
        L 19.712 25.047
        L 19.760 25.025
        L 19.808 25.004
        L 19.856 24.982
        L 19.904 24.960
        L 19.952 24.939
        L 20.000 24.918
        L 20.048 24.897
        L 20.096 24.876
        L 20.144 24.854
        L 20.192 24.834
        L 20.240 24.813
        L 20.288 24.791
        L 20.336 24.771
        L 20.384 24.750
        L 20.433 24.730
        L 20.480 24.709
        L 20.528 24.688
        L 20.576 24.668
        L 20.624 24.648
        L 20.672 24.627
        L 20.720 24.607
        L 20.768 24.587
        L 20.816 24.567
        L 20.864 24.546
        L 20.912 24.526
        L 20.961 24.507
        L 21.008 24.486
        L 21.056 24.467
        L 21.104 24.446
        L 21.152 24.427
        L 21.200 24.408
        L 21.248 24.388
        L 21.296 24.369
        L 21.344 24.349
        L 21.392 24.330
        L 21.440 24.310
        L 21.488 24.291
        L 21.536 24.272
        L 21.585 24.253
        L 21.632 24.234
        L 21.680 24.215
        L 21.728 24.197
        L 21.776 24.178
        L 21.824 24.159
        L 21.872 24.140
        L 21.920 24.123
        L 21.968 24.104
        L 22.016 24.085
        L 22.064 24.067
        L 22.112 24.049
        L 22.160 24.031
        L 22.208 24.013
        L 22.256 23.995
        L 22.304 23.978
        L 22.353 23.960
        L 22.400 23.943
        L 22.448 23.925
        L 22.496 23.907
        L 22.544 23.889
        L 22.592 23.873
        L 22.640 23.855
        L 22.688 23.838
        L 22.736 23.821
        L 22.784 23.805
        L 22.832 23.788
        L 22.880 23.771
        L 22.928 23.754
        L 22.976 23.738
        L 23.024 23.722
        L 23.072 23.706
        L 23.120 23.689
        L 23.216 23.657
        L 23.264 23.641
        L 23.312 23.626
        L 23.360 23.610
        L 23.408 23.595
        L 23.456 23.580
        L 23.505 23.564
        L 23.552 23.549
        L 23.600 23.534
        L 23.648 23.519
        L 23.696 23.505
        L 23.744 23.489
        L 23.792 23.475
        L 23.840 23.460
        L 23.888 23.446
        L 23.936 23.432
        L 23.984 23.418
        L 24.032 23.404
        L 24.080 23.390
        L 24.128 23.377
        L 24.176 23.363
        L 24.224 23.349
        L 24.273 23.336
        L 24.320 23.323
        L 24.368 23.310
        L 24.416 23.297
        L 24.464 23.285
        L 24.512 23.272
        L 24.560 23.259
        L 24.608 23.247
        L 24.656 23.235
        L 24.704 23.223
        L 24.752 23.212
        L 24.800 23.199
        L 24.896 23.176
        L 24.944 23.166
        L 24.992 23.154
        L 25.040 23.144
        L 25.136 23.122
        L 25.184 23.112
        L 25.232 23.101
        L 25.280 23.092
        L 25.328 23.082
        L 25.376 23.072
        L 25.425 23.062
        L 25.472 23.053
        L 25.520 23.044
        L 25.568 23.035
        L 25.616 23.026
        L 25.664 23.017
        L 25.712 23.009
        L 25.760 23.000
        L 25.808 22.993
        L 25.856 22.986
        L 25.904 22.978
        L 25.952 22.970
        L 26.000 22.964
        L 26.048 22.956
        L 26.096 22.949
        L 26.144 22.943
        L 26.192 22.937
        L 26.240 22.931
        L 26.288 22.925
        L 26.336 22.919
        L 26.384 22.914
        L 26.432 22.909
        L 26.480 22.904
        L 26.528 22.899
        L 26.576 22.896
        L 26.624 22.891
        L 26.672 22.888
        L 26.720 22.884
        L 26.816 22.877
        L 26.864 22.874
        L 26.912 22.873
        L 26.960 22.870
        L 27.056 22.866
        L 27.104 22.866
        L 27.152 22.865
        L 27.200 22.864
        L 27.345 22.864
        L 27.440 22.866
        L 27.488 22.866
        L 27.536 22.868
        L 27.584 22.871
        L 27.632 22.874
        L 27.680 22.876
        L 27.728 22.879
        L 27.776 22.882
        L 27.824 22.887
        L 27.872 22.891
        L 27.920 22.896
        L 27.968 22.901
        L 28.016 22.907
        L 28.064 22.913
        L 28.112 22.919
        L 28.160 22.926
        L 28.208 22.934
        L 28.256 22.942
        L 28.304 22.950
        L 28.352 22.959
        L 28.400 22.969
        L 28.448 22.979
        L 28.496 22.990
        L 28.544 23.000
        L 28.592 23.012
        L 28.640 23.024
        L 28.688 23.038
        L 28.736 23.051
        L 28.784 23.065
        L 28.832 23.080
        L 28.880 23.095
        L 28.928 23.111
        L 28.976 23.128
        L 29.024 23.145
        L 29.072 23.164
        L 29.120 23.183
        L 29.168 23.202
        L 29.216 23.223
        L 29.265 23.244
        L 29.312 23.266
        L 29.360 23.289
        L 29.408 23.313
        L 29.456 23.338
        L 29.503 23.364
        L 29.552 23.391
        L 29.600 23.419
        L 29.648 23.447
        L 29.696 23.477
        L 29.744 23.509
        L 29.792 23.541
        L 29.840 23.574
        L 29.888 23.610
        L 29.936 23.646
        L 29.984 23.683
        L 30.032 23.722
        L 30.080 23.762
        L 30.128 23.805
        L 30.176 23.848
        L 30.224 23.893
        L 30.320 23.989
        L 30.368 24.040
        L 30.416 24.093
        L 30.464 24.148
        L 30.512 24.206
        L 30.560 24.265
        L 30.608 24.327
        L 30.656 24.392
        L 30.704 24.460
        L 30.752 24.530
        L 30.800 24.605
        L 30.848 24.682
        L 30.896 24.764
        L 30.944 24.848
        L 30.992 24.937
        L 31.040 25.032
        L 31.088 25.130
        L 31.136 25.235
        L 31.184 25.345
        L 31.232 25.461
        L 31.280 25.585
        L 31.328 25.718
        L 31.376 25.858
        L 31.423 26.009
        L 31.472 26.171
        L 31.520 26.347
        L 31.568 26.538
        L 31.616 26.746
        L 31.664 26.976
        L 31.712 27.231
        L 31.760 27.518
        L 31.808 27.845
        L 31.856 28.225
        L 31.904 28.674
        L 31.952 29.220
        L 32.000 29.896
        L 32.000 29.906
        L 32.048 30.720
        L 32.096 31.621
        L 32.144 32.440
        L 32.192 33.119
        L 32.240 33.666
        L 32.288 34.113
        L 32.336 34.493
        L 32.384 34.822
        L 32.432 35.108
        L 32.480 35.367
        L 32.480 35.363
        L 32.528 35.593
        L 32.577 35.801
        L 32.624 35.992
        L 32.672 36.168
        L 32.720 36.330
        L 32.768 36.481
        L 32.816 36.621
        L 32.864 36.754
        L 32.912 36.877
        L 32.960 36.994
        L 33.008 37.104
        L 33.056 37.208
        L 33.104 37.308
        L 33.152 37.402
        L 33.200 37.491
        L 33.248 37.575
        L 33.296 37.657
        L 33.344 37.734
        L 33.392 37.809
        L 33.440 37.879
        L 33.488 37.947
        L 33.536 38.012
        L 33.584 38.074
        L 33.632 38.133
        L 33.680 38.191
        L 33.728 38.246
        L 33.776 38.299
        L 33.824 38.350
        L 33.872 38.398
        L 33.920 38.446
        L 33.968 38.491
        L 34.016 38.534
        L 34.064 38.576
        L 34.112 38.617
        L 34.160 38.656
        L 34.208 38.693
        L 34.256 38.729
        L 34.304 38.765
        L 34.352 38.798
        L 34.400 38.830
        L 34.448 38.862
        L 34.497 38.892
        L 34.592 38.948
        L 34.640 38.975
        L 34.688 39.001
        L 34.735 39.026
        L 34.784 39.050
        L 34.832 39.073
        L 34.880 39.095
        L 34.928 39.116
        L 34.976 39.137
        L 35.024 39.156
        L 35.120 39.194
        L 35.168 39.211
        L 35.216 39.228
        L 35.264 39.244
        L 35.312 39.259
        L 35.360 39.274
        L 35.408 39.288
        L 35.456 39.301
        L 35.504 39.315
        L 35.552 39.327
        L 35.600 39.339
        L 35.648 39.350
        L 35.696 39.360
        L 35.744 39.370
        L 35.792 39.380
        L 35.840 39.389
        L 35.888 39.397
        L 35.936 39.405
        L 35.984 39.413
        L 36.032 39.420
        L 36.080 39.426
        L 36.128 39.432
        L 36.176 39.438
        L 36.224 39.443
        L 36.272 39.448
        L 36.320 39.452
        L 36.368 39.457
        L 36.416 39.460
        L 36.464 39.463
        L 36.512 39.466
        L 36.560 39.468
        L 36.608 39.471
        L 36.655 39.473
        L 36.704 39.473
        L 36.752 39.474
        L 36.800 39.475
        L 36.944 39.475
        L 36.992 39.474
        L 37.040 39.473
        L 37.088 39.473
        L 37.136 39.471
        L 37.184 39.469
        L 37.232 39.466
        L 37.280 39.465
        L 37.328 39.462
        L 37.376 39.459
        L 37.424 39.455
        L 37.472 39.451
        L 37.520 39.448
        L 37.568 39.443
        L 37.616 39.440
        L 37.664 39.435
        L 37.712 39.430
        L 37.760 39.425
        L 37.808 39.420
        L 37.856 39.414
        L 37.904 39.408
        L 37.952 39.402
        L 38.000 39.396
        L 38.048 39.390
        L 38.096 39.383
        L 38.144 39.375
        L 38.192 39.369
        L 38.240 39.361
        L 38.288 39.353
        L 38.336 39.346
        L 38.384 39.339
        L 38.432 39.330
        L 38.480 39.322
        L 38.528 39.313
        L 38.575 39.304
        L 38.624 39.295
        L 38.672 39.286
        L 38.720 39.276
        L 38.768 39.267
        L 38.816 39.257
        L 38.864 39.247
        L 38.912 39.238
        L 38.960 39.227
        L 39.008 39.216
        L 39.056 39.206
        L 39.104 39.195
        L 39.152 39.185
        L 39.200 39.173
        L 39.248 39.163
        L 39.296 39.151
        L 39.344 39.140
        L 39.392 39.127
        L 39.440 39.116
        L 39.488 39.104
        L 39.536 39.092
        L 39.584 39.080
        L 39.632 39.067
        L 39.680 39.054
        L 39.727 39.042
        L 39.776 39.029
        L 39.824 39.016
        L 39.872 39.003
        L 39.920 38.990
        L 39.968 38.976
        L 40.016 38.962
        L 40.064 38.949
        L 40.112 38.935
        L 40.160 38.921
        L 40.208 38.907
        L 40.256 38.893
        L 40.352 38.864
        L 40.400 38.849
        L 40.448 38.835
        L 40.495 38.820
        L 40.544 38.805
        L 40.592 38.790
        L 40.640 38.775
        L 40.688 38.759
        L 40.736 38.744
        L 40.784 38.729
        L 40.832 38.713
        L 40.880 38.697
        L 40.928 38.682
        L 40.976 38.666
        L 41.024 38.650
        L 41.072 38.633
        L 41.120 38.617
        L 41.168 38.601
        L 41.216 38.584
        L 41.264 38.568
        L 41.312 38.551
        L 41.360 38.534
        L 41.408 38.517
        L 41.456 38.501
        L 41.504 38.484
        L 41.552 38.466
        L 41.600 38.450
        L 41.647 38.432
        L 41.696 38.414
        L 41.744 38.396
        L 41.792 38.379
        L 41.840 38.361
        L 41.888 38.344
        L 41.936 38.326
        L 41.984 38.308
        L 42.032 38.290
        L 42.080 38.272
        L 42.128 38.253
        L 42.176 38.235
        L 42.224 38.216
        L 42.272 38.199
        L 42.320 38.180
        L 42.368 38.161
        L 42.415 38.142
        L 42.464 38.124
        L 42.512 38.105
        L 42.560 38.086
        L 42.608 38.067
        L 42.656 38.048
        L 42.704 38.029
        L 42.752 38.009
        L 42.800 37.990
        L 42.848 37.970
        L 42.896 37.951
        L 42.944 37.931
        L 42.992 37.912
        L 43.039 37.892
        L 43.088 37.872
        L 43.136 37.853
        L 43.184 37.832
        L 43.232 37.813
        L 43.280 37.793
        L 43.328 37.772
        L 43.376 37.752
        L 43.424 37.732
        L 43.472 37.712
        L 43.520 37.691
        L 43.567 37.671
        L 43.616 37.651
        L 43.664 37.630
        L 43.712 37.609
        L 43.760 37.589
        L 43.808 37.568
        L 43.856 37.547
        L 43.904 37.526
        L 43.952 37.505
        L 44.000 37.485
        L 44.048 37.463
        L 44.096 37.442
        L 44.144 37.421
        L 44.192 37.400
        L 44.240 37.379
        L 44.288 37.356
        L 44.335 37.335
        L 44.384 37.314
        L 44.432 37.293
        L 44.480 37.271
        L 44.528 37.250
        L 44.576 37.228
        L 44.624 37.206
        L 44.672 37.184
        L 44.719 37.162
        L 44.768 37.140
        L 44.816 37.118
        L 44.864 37.096
        L 44.959 37.052
        L 45.008 37.030
        L 45.056 37.008
        L 45.104 36.986
        L 45.152 36.964
        L 45.200 36.941
        L 45.248 36.919
        L 45.296 36.897
        L 45.344 36.874
        L 45.392 36.852
        L 45.440 36.829
        L 45.487 36.806
        L 45.536 36.784
        L 45.584 36.761
        L 45.632 36.738
        L 45.680 36.715
        L 45.728 36.692
        L 45.776 36.669
        L 45.824 36.646
        L 45.872 36.623
        L 45.920 36.600
        L 45.968 36.577
        L 46.016 36.554
        L 46.064 36.531
        L 46.112 36.508
        L 46.160 36.484
        L 46.208 36.462
        L 46.255 36.438
        L 46.304 36.415
        L 46.352 36.391
        L 46.400 36.368
        L 46.448 36.344
        L 46.496 36.321
        L 46.544 36.297
        L 46.639 36.250
        L 46.688 36.227
        L 46.736 36.203
        L 46.784 36.179
        L 46.879 36.131
        L 46.928 36.108
        L 46.976 36.084
        L 47.024 36.060
        L 47.072 36.036
        L 47.120 36.011
        L 47.168 35.988
        L 47.216 35.964
        L 47.264 35.940
        L 47.312 35.915
        L 47.360 35.891
        L 47.407 35.868
        L 47.456 35.843
        L 47.504 35.819
        L 47.552 35.794
        L 47.600 35.770
        L 47.648 35.745
        L 47.696 35.721
        L 47.744 35.697
        L 47.791 35.672
        L 47.840 35.648
        L 47.888 35.623
        L 47.936 35.599
        L 48.031 35.550
        L 48.080 35.525
        L 48.128 35.500
        L 48.175 35.475
        L 48.224 35.451
        L 48.271 35.426
        L 48.320 35.401
        L 48.368 35.377
        L 48.416 35.352
        L 48.464 35.326
        L 48.512 35.302
        L 48.559 35.277
        L 48.608 35.252
        L 48.656 35.227
        L 48.704 35.202
        L 48.752 35.177
        L 48.799 35.152
        L 48.848 35.127
        L 48.896 35.102
        L 48.944 35.077
        L 48.992 35.052
        L 49.040 35.026
        L 49.088 35.001
        L 49.136 34.976
        L 49.184 34.950
        L 49.232 34.925
        L 49.280 34.900
        L 49.327 34.874
        L 49.376 34.850
        L 49.424 34.824
        L 49.472 34.799
        L 49.520 34.773
        L 49.568 34.747
        L 49.616 34.722
        L 49.664 34.697
        L 49.711 34.671
        L 49.760 34.646
        L 49.808 34.620
        L 49.856 34.594
        L 49.951 34.543
        L 50.000 34.518
        L 50.048 34.492
        L 50.095 34.467
        L 50.144 34.441
        L 50.191 34.415
        L 50.240 34.389
        L 50.288 34.363
        L 50.336 34.338
        L 50.384 34.312
        L 50.432 34.287
        L 50.479 34.260
        L 50.528 34.234
        L 50.576 34.209
        L 50.624 34.182
        L 50.672 34.157
        L 50.719 34.131
        L 50.768 34.104
        L 50.816 34.079
        L 50.864 34.053
        L 50.912 34.027
        L 50.960 34.001
        L 51.008 33.975
        L 51.056 33.949
        L 51.104 33.923
        L 51.152 33.897
        L 51.200 33.871
        L 51.247 33.845
        L 51.296 33.819
        L 51.344 33.792
        L 51.392 33.767
        L 51.440 33.740
        L 51.488 33.713
        L 51.536 33.688
        L 51.584 33.661
        L 51.631 33.635
        L 51.680 33.609
        L 51.728 33.583
        L 51.776 33.557
        L 51.824 33.530
        L 51.871 33.504
        L 51.920 33.478
        L 52.015 33.425
        L 52.064 33.398
        L 52.111 33.372
        L 52.160 33.346
        L 52.208 33.320
        L 52.256 33.293
        L 52.304 33.267
        L 52.399 33.214
        L 52.448 33.188
        L 52.496 33.161
        L 52.544 33.134
        L 52.639 33.081
        L 52.688 33.055
        L 52.736 33.029
        L 52.783 33.002
        L 52.832 32.976
        L 52.880 32.949
        L 52.928 32.923
        L 52.976 32.896
        L 53.023 32.870
        L 53.072 32.843
        L 53.120 32.816
        L 53.167 32.789
        L 53.216 32.763
        L 53.263 32.736
        L 53.312 32.710
        L 53.360 32.683
        L 53.408 32.657
        L 53.456 32.630
        L 53.504 32.603
        L 53.552 32.577
        L 53.600 32.550
        L 53.648 32.523
        L 53.696 32.496
        L 53.744 32.470
        L 53.791 32.443
        L 53.840 32.417
        L 53.888 32.389
        L 53.936 32.363
        L 53.984 32.337
        L 54.031 32.309
        L 54.080 32.283
        L 54.128 32.256
        L 54.176 32.230
        L 54.224 32.202
        L 54.272 32.176
        L 54.320 32.149
        L 54.368 32.122
        L 54.416 32.096
        L 54.464 32.069
        L 54.512 32.042
        L 54.559 32.015
        L 54.608 31.989
        L 54.656 31.961
        L 54.704 31.935
        L 54.752 31.908
        L 54.800 31.881
        L 54.848 31.854
        L 54.896 31.827
        L 54.943 31.801
        L 54.992 31.774
        L 55.040 31.747
        L 55.088 31.720
        L 55.136 31.693
        L 55.183 31.667
        L 55.232 31.639
        L 55.280 31.613
        L 55.328 31.586
        L 55.376 31.559
        L 55.424 31.532
        L 55.472 31.505
        L 55.520 31.478
        L 55.568 31.452
        L 55.616 31.424
        L 55.664 31.398
        L 55.711 31.371
        L 55.760 31.344
        L 55.808 31.317
        L 55.856 31.290
        L 55.904 31.264
        L 55.951 31.237
        L 56.000 31.210
      "
      fill="none"
      stroke="#4a657d"
      stroke-width="5.4"
      stroke-linecap="round"
      stroke-linejoin="round"
  />
</svg>
